<svg xmlns="http://www.w3.org/2000/svg" width="231" height="40" viewBox="0 0 231 40" fill="none"><g clip-path="url(#clip0_2001_405)"><path d="M20.6182 3.28356C21.1048 4.66689 20.8636 6.52106 19.9653 7.69606C19.2417 8.65023 18.069 9.41273 16.8921 9.63773C16.1145 9.78356 15.2287 9.60023 14.422 9.76273C12.7627 10.0919 11.8686 11.2461 10.7416 12.4086C9.1073 14.1002 10.1012 15.9169 9.39009 17.7419C7.98033 21.3627 3.22293 22.0461 0.927406 18.9044C-0.952266 16.3377 0.145596 12.6336 3.13976 11.5086C4.60774 10.9586 6.08403 11.5002 7.49794 10.8086C8.62907 10.2544 10.3216 8.56273 10.8373 7.40856C11.4361 6.06273 10.9787 4.83356 11.382 3.47939C12.7336 -1.0581 19.0463 -1.19144 20.6182 3.28356ZM15.8275 12.8711C13.3116 13.1294 11.7355 15.8044 12.6296 18.1586C13.7815 21.2002 17.9817 21.5419 19.641 18.7502C21.2961 15.9627 19.0047 12.5419 15.8275 12.8711ZM15.8941 23.8086C13.7607 24.0294 12.4258 26.2961 13.1827 28.2919C14.16 30.8711 17.7239 31.1627 19.1294 28.7961C20.535 26.4336 18.593 23.5294 15.8941 23.8086ZM31.5844 6.98773C33.3143 4.07939 30.9231 0.508561 27.6046 0.850228C24.9805 1.12106 23.3338 3.91273 24.2653 6.36689C25.4671 9.54189 29.8544 9.90023 31.5844 6.98773ZM36.3958 16.6627C36.1297 16.6669 35.8635 16.6294 35.6098 16.5419L27.143 13.5669C24.2528 12.2461 22.5603 12.1461 24.1488 18.6127C24.8516 21.4711 25.4505 27.2627 25.2176 30.1961C25.1802 30.6502 25.0429 31.0919 24.8558 31.5294C24.7518 31.7711 24.6063 31.9919 24.4275 32.1877C23.2797 33.4419 22.8181 35.3086 23.471 37.0336C24.8433 40.6502 29.8378 41.0586 31.8089 37.7377C33.2727 35.2752 32.1416 32.3919 29.9126 31.2377C29.6007 31.0752 29.3803 30.7752 29.3096 30.4294C29.1183 29.4419 28.9104 28.1586 29.3055 27.1002C29.95 25.3752 31.339 24.0627 32.5283 23.5752C32.8319 23.4502 33.1854 23.5294 33.4058 23.7669C35.2148 25.7169 38.6414 25.5627 40.1427 23.0377C41.8685 20.1336 39.6312 16.6002 36.3958 16.6586V16.6627Z" fill="url(#paint0_linear_2001_405)"></path><path d="M52.8387 8.6125H48.8049V31.5708H52.8387V8.6125Z" fill="#02392B"></path><path d="M72.3258 14.7958C71.1863 14.1417 69.8015 13.8167 68.1714 13.8167C66.7034 13.8167 65.381 14.1583 64.1999 14.8417C63.0189 15.525 62.05 16.5 61.2973 17.7667C61.1725 17.9792 61.0644 18.2083 60.9563 18.4333L60.2576 14.2458H56.2862L57.3258 19.9083V31.5708H61.2973V23.1208C61.2973 21.9167 61.526 20.8667 61.9834 19.9667C62.4409 19.0708 63.0938 18.3708 63.938 17.8708C64.7821 17.3708 65.7677 17.1208 66.8864 17.1208C68.5165 17.1208 69.7516 17.5833 70.6 18.5125C71.4442 19.4417 71.8683 20.8125 71.8683 22.6292V31.5667H75.8398V21.9833C75.8398 20.2708 75.5403 18.8042 74.9374 17.5917C74.3385 16.3792 73.4652 15.4458 72.3258 14.7917V14.7958Z" fill="#02392B"></path><path d="M88.644 28.725C87.2384 28.725 86.2237 28.4333 85.6041 27.8542C84.9845 27.2708 84.6726 26.2583 84.6726 24.8083V17.3083H92.7069V14.2458H84.6726V9.71667H82.3521L80.7011 14.5542L77.0042 15.5042V17.3083H80.7011V25.4208C80.7011 26.7083 80.9382 27.8458 81.4206 28.8333C81.8988 29.825 82.6598 30.6 83.6953 31.1583C84.7308 31.7167 86.099 32 87.7915 32C88.8103 32 89.8042 31.8792 90.769 31.6333C91.738 31.3875 92.4865 31.1333 93.0146 30.8667V27.5917C92.3825 27.9583 91.7213 28.2417 91.0269 28.4333C90.3324 28.6292 89.5381 28.725 88.644 28.725Z" fill="#02392B"></path><path d="M112.306 18.775C111.533 17.2042 110.439 15.9833 109.021 15.1167C107.607 14.25 105.931 13.8167 103.993 13.8167C102.055 13.8167 100.342 14.2 98.845 14.9667C97.3479 15.7333 96.1752 16.7917 95.331 18.15C94.4868 19.5083 94.0626 21.0833 94.0626 22.8792C94.0626 24.675 94.5117 26.2875 95.4058 27.6542C96.2999 29.0208 97.535 30.0875 99.1028 30.8542C100.671 31.6208 102.463 32.0042 104.48 32.0042C106.048 32.0042 107.59 31.7708 109.108 31.3C110.626 30.8292 111.915 30.1875 112.972 29.3708V26.4917C111.911 27.2458 110.689 27.8333 109.304 28.25C107.919 28.6667 106.563 28.8792 105.241 28.8792C103.773 28.8792 102.509 28.6292 101.436 28.1292C100.367 27.6292 99.5436 26.9083 98.9614 25.9708C98.6537 25.4708 98.4249 24.9167 98.2835 24.3167H113.458C113.458 22.1958 113.071 20.3458 112.298 18.775H112.306ZM100.862 17.6417C101.727 17.1708 102.742 16.9375 103.902 16.9375C105 16.9375 105.952 17.1583 106.759 17.5958C107.561 18.0333 108.206 18.6625 108.684 19.4792C108.996 20.0083 109.208 20.6167 109.345 21.2833H98.2336C98.3501 20.675 98.5455 20.1125 98.8325 19.6167C99.3232 18.7708 99.9969 18.1125 100.866 17.6417H100.862Z" fill="#02392B"></path><path d="M120.395 8H116.423V31.5708H120.395V8Z" fill="#02392B"></path><path d="M149.317 18.775C148.544 17.2042 147.45 15.9833 146.032 15.1167C144.614 14.25 142.942 13.8167 141.005 13.8167C139.067 13.8167 137.353 14.2 135.856 14.9667C134.359 15.7333 133.186 16.7917 132.342 18.15C131.498 19.5083 131.074 21.0833 131.074 22.8792C131.074 24.675 131.523 26.2875 132.417 27.6542C133.311 29.0208 134.546 30.0875 136.114 30.8542C137.682 31.6208 139.474 32.0042 141.491 32.0042C143.059 32.0042 144.602 31.7708 146.12 31.3C147.637 30.8292 148.927 30.1875 149.983 29.3708V26.4917C148.922 27.2458 147.7 27.8333 146.315 28.25C144.93 28.6667 143.575 28.8792 142.252 28.8792C140.784 28.8792 139.516 28.6292 138.447 28.1292C137.378 27.6292 136.555 26.9083 135.973 25.9708C135.665 25.4708 135.44 24.9167 135.295 24.3167H150.469C150.469 22.1958 150.083 20.3458 149.309 18.775H149.317ZM137.877 17.6417C138.742 17.1708 139.757 16.9375 140.917 16.9375C142.015 16.9375 142.967 17.1583 143.774 17.5958C144.577 18.0333 145.221 18.6625 145.7 19.4792C146.011 20.0083 146.224 20.6167 146.361 21.2833H135.249C135.365 20.675 135.561 20.1125 135.848 19.6167C136.339 18.7708 137.012 18.1125 137.881 17.6417H137.877Z" fill="#02392B"></path><path d="M159.211 17.6583C160.126 17.1792 161.198 16.9375 162.417 16.9375C163.943 16.9375 165.249 17.3042 166.326 18.0417C167.407 18.775 168.089 19.7958 168.372 21.1042H172.373C172.169 19.6542 171.607 18.3833 170.692 17.2917C169.778 16.2 168.605 15.35 167.179 14.7375C165.752 14.125 164.164 13.8208 162.413 13.8208C160.417 13.8208 158.658 14.2042 157.144 14.9708C155.626 15.7375 154.441 16.8042 153.584 18.1708C152.727 19.5375 152.299 21.1208 152.299 22.9167C152.299 24.7125 152.727 26.2958 153.584 27.6625C154.441 29.0292 155.626 30.0958 157.144 30.8625C158.662 31.6292 160.417 32.0125 162.413 32.0125C164.164 32.0125 165.752 31.7083 167.179 31.0958C168.605 30.4833 169.778 29.6333 170.692 28.5375C171.607 27.4458 172.169 26.1875 172.373 24.7583H168.372C168.106 26.0042 167.436 27.0042 166.355 27.7583C165.274 28.5125 163.96 28.8917 162.413 28.8917C161.19 28.8917 160.121 28.65 159.207 28.1708C158.292 27.6917 157.581 27.0042 157.082 26.1042C156.582 25.2083 156.333 24.1458 156.333 22.9208C156.333 21.6958 156.582 20.6083 157.082 19.7208C157.581 18.8333 158.287 18.15 159.207 17.6708L159.211 17.6583Z" fill="#02392B"></path><path d="M184.486 28.725C183.081 28.725 182.066 28.4333 181.447 27.8542C180.827 27.2708 180.515 26.2583 180.515 24.8083V17.3083H188.549V14.2458H180.515V9.71667H178.195L176.544 14.5542L172.847 15.5042V17.3083H176.544V25.4208C176.544 26.7083 176.785 27.8458 177.263 28.8333C177.741 29.825 178.502 30.6 179.538 31.1583C180.573 31.7167 181.941 32 183.63 32C184.649 32 185.643 31.8792 186.607 31.6333C187.576 31.3875 188.325 31.1333 188.853 30.8667V27.5917C188.221 27.9583 187.56 28.2417 186.865 28.4333C186.171 28.6292 185.376 28.725 184.482 28.725H184.486Z" fill="#02392B"></path><path d="M209.026 14.2458H205.055V22.6958C205.055 23.9 204.83 24.9583 204.381 25.8625C203.932 26.7708 203.308 27.4708 202.501 27.9583C201.695 28.45 200.734 28.6917 199.615 28.6917C198.068 28.6917 196.879 28.2292 196.056 27.3C195.232 26.3708 194.816 25.0083 194.816 23.2125V14.2417H190.845V23.825C190.845 25.5208 191.14 26.9792 191.731 28.2042C192.321 29.4292 193.17 30.3667 194.28 31.0208C195.39 31.675 196.738 32 198.326 32C199.773 32 201.075 31.6583 202.235 30.975C203.395 30.2917 204.344 29.3125 205.076 28.0375C205.188 27.8417 205.283 27.625 205.383 27.4167L206.053 31.5708H210.024L209.018 25.9375V14.2417L209.026 14.2458Z" fill="#02392B"></path><path d="M230.389 23.8875C229.981 23.175 229.283 22.5875 228.297 22.1292C227.307 21.6708 225.939 21.3583 224.188 21.1958L219.818 20.7958C218.495 20.675 217.589 20.4542 217.098 20.1375C216.607 19.8208 216.366 19.4375 216.366 18.9875C216.366 18.275 216.769 17.7333 217.572 17.3667C218.375 17 219.493 16.8167 220.915 16.8167C222.259 16.8167 223.336 16.9667 224.138 17.2625C224.941 17.5583 225.544 17.925 225.939 18.3625C226.334 18.8 226.575 19.2542 226.658 19.725H230.692C230.588 18.5625 230.123 17.5375 229.287 16.65C228.451 15.7625 227.332 15.0667 225.927 14.5667C224.521 14.0667 222.924 13.8167 221.132 13.8167C219.339 13.8167 217.884 14.025 216.578 14.4458C215.272 14.8625 214.258 15.4708 213.522 16.2667C212.79 17.0625 212.42 18.0542 212.42 19.2375C212.42 20.0542 212.644 20.825 213.093 21.55C213.542 22.275 214.295 22.8875 215.355 23.3875C216.416 23.8875 217.859 24.2208 219.693 24.3833L223.082 24.6875C224.629 24.8292 225.685 25.0458 226.243 25.3292C226.804 25.6167 227.083 26.0333 227.083 26.5833C227.083 27.4 226.667 28.0083 225.831 28.4042C224.995 28.8 223.752 29 222.105 29C220.965 29 219.951 28.8667 219.065 28.6042C218.179 28.3375 217.464 27.9583 216.927 27.4542C216.387 26.9542 216.058 26.3792 215.934 25.725H211.9C211.962 26.9708 212.403 28.0667 213.23 29.0167C214.054 29.9667 215.222 30.7 216.728 31.2208C218.233 31.7417 220.017 32 222.076 32C224.134 32 225.731 31.7708 227.058 31.3125C228.38 30.8542 229.37 30.1958 230.023 29.3375C230.676 28.4792 231 27.4708 231 26.3083C231 25.4125 230.796 24.6042 230.389 23.8917V23.8875Z" fill="#02392B"></path><path d="M124.221 19.5417V31.5708H128.192V16.8125C127.161 17.0125 126.208 17.525 125.451 18.2958C125.048 18.7208 124.636 19.1333 124.221 19.5417Z" fill="#02392B"></path><path d="M126.35 13.3958C126.35 13.3958 126.35 13.3833 126.35 13.375C126.35 13.3667 126.35 13.3625 126.35 13.3542C126.171 11.8125 125.281 10.4417 124.233 9.34167C124.233 9.34167 124.229 9.3375 124.225 9.33333V18.1458C124.507 17.8458 124.786 17.5417 125.069 17.2417C126.046 16.175 126.533 14.825 126.354 13.3917L126.35 13.3958Z" fill="#02392B"></path><path d="M128.192 10.5292V8H124.221V8.22083C124.262 8.2625 124.3 8.30833 124.341 8.35C125.385 9.41667 126.728 10.2167 128.192 10.5292Z" fill="#02392B"></path></g><defs><linearGradient id="paint0_linear_2001_405" x1="4.59851e-05" y1="20.0002" x2="40.7374" y2="20.0002" gradientUnits="userSpaceOnUse"><stop stop-color="#026B46"></stop><stop offset="1" stop-color="#02392B"></stop></linearGradient><clipPath id="clip0_2001_405"><rect width="231" height="40" fill="white"></rect></clipPath></defs></svg>